<?xml version="1.0" encoding="utf-8"?>
<!-- Generator: Adobe Illustrator 16.0.0, SVG Export Plug-In . SVG Version: 6.00 Build 0)  -->
<!DOCTYPE svg PUBLIC "-//W3C//DTD SVG 1.1//EN" "http://www.w3.org/Graphics/SVG/1.1/DTD/svg11.dtd">
<svg version="1.1" id="Layer_1" xmlns="http://www.w3.org/2000/svg" xmlns:xlink="http://www.w3.org/1999/xlink" x="0px" y="0px"
	 width="381.534px" height="161.589px" viewBox="0 0 381.534 161.589" enable-background="new 0 0 381.534 161.589"
	 xml:space="preserve">
<rect x="17.932" y="28.125" fill="#163D67" width="38.787" height="97.062"/>
<g>
	<path fill="#FFFFFF" d="M32.664,101.769c-2.781-0.038-5.017,1.656-5.017,5.062c0,4.029,5.971,5.062,9.678,5.062
		c3.697,0,9.679-1.033,9.679-5.062c0-3.405-2.238-5.1-5.017-5.062v-6.045c6.635,0.251,9.133,5.017,9.133,11.106
		c0,7.659-6.063,11.117-13.795,11.117c-7.739,0-13.794-3.458-13.794-11.117c0-6.09,2.497-10.855,9.133-11.106V101.769z"/>
	<polygon fill="#FFFFFF" points="50.561,74.447 50.561,79.177 27.826,86.187 27.9,86.262 50.561,86.262 50.561,91.574 
		24.082,91.574 24.082,82.267 43.334,76.729 43.334,76.646 24.082,70.637 24.082,61.655 50.561,61.655 50.561,66.974 27.9,66.974 
		27.826,67.037 	"/>
	<path fill="#FFFFFF" d="M31.643,41.556c-2.676,0.219-3.996,1.651-3.996,4.397c0,2.095,1.105,4.227,3.408,4.227
		c2.853,0,3.181-2.569,3.744-4.846c1.02-4.032,2.152-9.97,7.477-9.97c6.562,0,8.844,5.719,8.844,11.397
		c0,6.058-2.356,10.346-9.036,10.162v-5.796c2.943,0.219,4.919-1.46,4.919-4.438c0-2.266-0.692-5.278-3.519-5.278
		c-3.107,0-3.334,3.779-3.923,6.05c-0.918,3.704-2.611,8.766-7.302,8.766c-6.044,0-8.729-5.579-8.729-10.996
		c0-5.138,2.798-9.132,8.112-9.132V41.556z"/>
</g>
<g>
	<path fill="#163D67" d="M92.361,90.024c-0.4-4.939-3.037-7.381-8.115-7.386c-3.856-0.005-7.784,2.023-7.79,6.29
		c-0.005,5.276,4.731,5.89,8.926,6.912c7.445,1.905,18.41,4.011,18.405,13.829c-0.021,12.117-10.581,16.305-21.073,16.291
		c-11.163-0.008-19.09-4.353-18.738-16.667l10.701,0.008c-0.419,5.417,2.698,9.07,8.182,9.079c4.195,0.008,9.748-1.273,9.748-6.49
		c0.005-5.75-6.959-6.164-11.165-7.25c-6.832-1.7-16.166-4.822-16.161-13.487c0.011-11.17,10.312-16.104,20.326-16.091
		c9.473,0.011,16.854,5.161,16.838,14.976L92.361,90.024z"/>
	<polygon fill="#163D67" points="160.404,76.15 160.356,125.019 150.2,125.016 150.253,76.14 	"/>
	<path fill="#163D67" d="M191.226,120.859c-2.167,3.111-5.353,5.201-10.493,5.201c-3.384-0.005-9.943-2.589-11.16-7.525
		c-0.55-2.1-0.672-4.27-0.672-5.417l0.021-22.066l10.151,0.008l-0.016,20.375c0.064,3.658,1.078,7.853,6.079,7.856
		c3.181,0.002,5.961-2.898,6.1-7.843l0.021-20.377l10.151,0.011l-0.021,27.891c0.059,2.028,0.192,4.062,0.395,6.09l-10.146-0.011
		L191.226,120.859z"/>
	<path fill="#163D67" d="M212.985,91.092v-6.704l10.162-3.645l-0.011,10.359l7.653,0.008l-0.011,6.773l-7.648-0.011l-0.011,15.771
		c-0.005,4.47,0.667,5.692,4.185,5.692c1.088,0,2.161-0.134,3.255-0.203l-0.011,5.959c-1.147,0.539-6.564,1.003-7.99,1.003
		c-7.92-0.002-9.606-4.133-9.596-11.514l0.016-16.713l-6.832-0.016l0.005-6.77L212.985,91.092z"/>
	<path fill="#163D67" d="M247.254,76.239l-0.011,8.731l-10.834-0.014l0.005-8.731L247.254,76.239z M246.896,91.126l-0.032,33.983
		l-10.156-0.014l0.032-33.983L246.896,91.126z"/>
	<path fill="#163D67" d="M271.911,126.151c-11.106-0.008-17.735-7.336-17.724-18.026c0.016-10.696,6.649-18.002,17.756-17.991
		c11.106,0.01,17.73,7.328,17.714,18.026C289.646,118.86,283.007,126.162,271.911,126.151z M271.911,119.375
		c6.228,0.011,7.248-5.81,7.253-11.227c0.005-5.412-0.998-11.24-7.232-11.245c-6.228-0.005-7.242,5.814-7.253,11.231
		C264.679,113.553,265.688,119.37,271.911,119.375z"/>
	<path fill="#163D67" d="M307.141,95.11l0.128,0.211c2.108-3.12,5.289-5.142,10.434-5.142c3.384,0.002,9.948,2.519,11.16,7.461
		c0.539,2.098,0.678,4.265,0.678,5.412l-0.026,22.141l-10.156-0.017l0.021-20.438c-0.059-3.656-1.077-7.787-6.084-7.792
		c-3.181,0-5.961,2.837-6.101,7.779l-0.016,20.441l-10.156-0.011l0.037-33.979l10.082,0.008V95.11z"/>
	<path fill="#163D67" d="M355.462,100.309c-0.128-2.305-2.306-3.322-4.605-3.322c-2.771-0.008-4.051,0.806-4.057,3.042
		c-0.011,5.345,19.427,2.319,19.411,15.045c-0.011,7.445-9.084,11.162-15.381,11.151c-7.915-0.005-14.811-3.125-14.944-10.914
		l9.409,0.014c0.203,2.642,2.572,4.131,5.545,4.133c2.775,0.005,4.873-1.145,4.873-3.784c0.011-2.711-4.867-3.864-6.896-4.336
		c-6.5-1.569-12.51-2.994-12.51-10.917c0.011-7.104,8.604-10.207,14.564-10.207c7.168,0.01,13.269,2.583,13.728,10.098
		L355.462,100.309z"/>
	<path fill="none" stroke="#163D67" stroke-width="1.0598" d="M164.434,88.989c0,10.415-8.443,18.858-18.877,18.858
		c-10.411,0-18.849-8.443-18.849-18.858c0-10.423,8.438-18.864,18.849-18.864C155.99,70.125,164.434,78.565,164.434,88.989z"/>
	<path fill="none" stroke="#163D67" stroke-width="1.0598" d="M126.286,127.135c0,10.421-8.438,18.861-18.861,18.861
		c-10.42,0-18.866-8.44-18.866-18.861c0-10.42,8.446-18.864,18.866-18.864C117.848,108.271,126.286,116.715,126.286,127.135z"/>
	<path fill="none" stroke="#163D67" stroke-width="1.0598" d="M145.311,108.08c0,10.418-8.442,18.866-18.857,18.866
		c-10.413,0-18.866-8.448-18.866-18.866s8.454-18.861,18.866-18.861C136.869,89.218,145.311,97.662,145.311,108.08z"/>
	<path fill="#163D67" d="M107.699,108.058h18.754v19.24C126.454,127.298,125.61,108.685,107.699,108.058z"/>
	<path fill="#163D67" d="M145.615,108.047h-19.172V89.157C126.443,89.157,127.692,107.417,145.615,108.047z"/>
</g>
<g>
	<path fill="#ABCD60" d="M76.052,68.163L63.919,28.354h15.226l6.423,28.231h0.159l6.979-28.231h16.653l6.899,28.072h0.159
		l6.979-28.072h13.322l-12.529,39.809h-16.653l-7.216-27.755h-0.159l-7.771,27.755H76.052z"/>
	<path fill="#ABCD60" d="M151.183,51.271c-0.08,5.155,1.269,9.596,6.899,9.596c4.203,0,6.82-1.983,7.375-5.71h13.957
		c-0.476,5.155-3.727,8.882-7.533,11.102c-3.489,2.221-7.93,3.093-12.609,3.093c-15.939,0-22.283-6.82-22.283-22.442
		c0-12.608,9.437-19.746,21.411-19.746c16.177,0,21.332,9.278,21.332,24.107H151.183z M165.457,43.183
		c0-2.141-0.635-4.282-1.824-5.947c-1.189-1.666-2.934-2.696-5.233-2.538c-5.234,0.238-6.503,3.965-6.899,8.485H165.457z"/>
	<path fill="#ABCD60" d="M185.261,10.908h15.067v21.649h0.159c2.775-3.569,7.613-5.393,12.133-5.393
		c12.212,0,17.684,9.199,17.684,20.459c0,12.133-5.393,21.728-18.556,21.728c-4.6,0-10.071-3.013-11.102-7.058h-0.317l-0.396,5.868
		h-14.67V10.908z M200.328,48.813c0,4.441,1.348,11.815,6.82,11.815c6.582,0,7.692-7.375,7.692-12.529
		c0-4.917-0.714-12.212-7.137-12.212C200.883,35.888,200.328,43.5,200.328,48.813z"/>
</g>
</svg>
